<?xml version="1.0" encoding="UTF-8"?>
<svg version="1.1" xmlns="http://www.w3.org/2000/svg" width="512" height="279">
<path d="M0 0 C0.99 0.33 1.98 0.66 3 1 C2.34 1.66 1.68 2.32 1 3 C1.99 4.485 1.99 4.485 3 6 C2.34 6 1.68 6 1 6 C0.34 6.66 -0.32 7.32 -1 8 C-1.04241723 5.66705225 -1.04092937 3.33297433 -1 1 C-0.67 0.67 -0.34 0.34 0 0 Z " fill="#000000" transform="translate(207,4)"/>
<path d="M0 0 C0.34675781 0.48082031 0.69351562 0.96164062 1.05078125 1.45703125 C3.95199235 3.75358112 6.54171147 3.52026199 10.1875 3.6875 C11.45980469 3.75324219 12.73210937 3.81898437 14.04296875 3.88671875 C15.01878906 3.92410156 15.99460937 3.96148437 17 4 C17 4.33 17 4.66 17 5 C16.02417969 5.03738281 15.04835938 5.07476563 14.04296875 5.11328125 C12.13451172 5.21189453 12.13451172 5.21189453 10.1875 5.3125 C8.29064453 5.39951172 8.29064453 5.39951172 6.35546875 5.48828125 C3.03396307 5.7113494 3.03396307 5.7113494 1.05078125 7.54296875 C0.70402344 8.02378906 0.35726563 8.50460938 0 9 C0.309375 7.824375 0.309375 7.824375 0.625 6.625 C0.74875 5.75875 0.8725 4.8925 1 4 C0.34 3.34 -0.32 2.68 -1 2 C-0.67 1.34 -0.34 0.68 0 0 Z " fill="#000000" transform="translate(275,12)"/>
<path d="M0 0 C3 1 3 1 4.6875 3.9375 C6 7 6 7 6 9 C5.34 9 4.68 9 4 9 C3.67 9.99 3.34 10.98 3 12 C3 11.01 3 10.02 3 9 C1.02 9 -0.96 9 -3 9 C-3 8.67 -3 8.34 -3 8 C-1.02 8 0.96 8 3 8 C2.67 6.02 2.34 4.04 2 2 C1.34 2 0.68 2 0 2 C0 1.34 0 0.68 0 0 Z " fill="#000000" transform="translate(7,18)"/>
<path d="M0 0 C0.66 0.33 1.32 0.66 2 1 C0.68 2.32 -0.64 3.64 -2 5 C-1.67 5.66 -1.34 6.32 -1 7 C-2.65 7.33 -4.3 7.66 -6 8 C-6.33 8.99 -6.66 9.98 -7 11 C-7.33 9.68 -7.66 8.36 -8 7 C-7.01 6.67 -6.02 6.34 -5 6 C-3.57142881 4.59894424 -3.57142881 4.59894424 -2.3125 2.9375 C-1.1678125 1.4834375 -1.1678125 1.4834375 0 0 Z " fill="#000000" transform="translate(22,18)"/>
<path d="M0 0 C1.9375 0.5625 1.9375 0.5625 4 2 C4.75 5.625 4.75 5.625 5 9 C2.36 8.67 -0.28 8.34 -3 8 C-3 7.67 -3 7.34 -3 7 C-1.02 6.67 0.96 6.34 3 6 C1.515 3.03 1.515 3.03 0 0 Z " fill="#000000" transform="translate(99,20)"/>
<path d="M0 0 C0.33 0 0.66 0 1 0 C1.0825 0.94875 1.165 1.8975 1.25 2.875 C1.65074923 6.10461791 1.65074923 6.10461791 4.0625 7.375 C4.701875 7.58125 5.34125 7.7875 6 8 C5.01 8 4.02 8 3 8 C2.67 8.66 2.34 9.32 2 10 C0.4375 8.375 0.4375 8.375 -1 6 C-0.6875 2.75 -0.6875 2.75 0 0 Z " fill="#000000" transform="translate(199,26)"/>
<path d="M0 0 C0.66 0.33 1.32 0.66 2 1 C2 1.66 2 2.32 2 3 C2.99 3.33 3.98 3.66 5 4 C4.01 4 3.02 4 2 4 C1.67 4.66 1.34 5.32 1 6 C-1.32156597 6.40729228 -3.6568787 6.74438677 -6 7 C-6 8.98 -6 10.96 -6 13 C-6.33 13 -6.66 13 -7 13 C-7 11.35 -7 9.7 -7 8 C-7.66 8 -8.32 8 -9 8 C-9.33 9.32 -9.66 10.64 -10 12 C-10.80967438 9.08517222 -11.21845993 7.53886783 -10.0625 4.6875 C-9.711875 4.130625 -9.36125 3.57375 -9 3 C-7.68 3.99 -6.36 4.98 -5 6 C-5 4.68 -5 3.36 -5 2 C-3.35 2.33 -1.7 2.66 0 3 C0 2.01 0 1.02 0 0 Z " fill="#000000" transform="translate(179,25)"/>
<path d="M0 0 C0.33 0 0.66 0 1 0 C1.22142255 1.95689659 1.4267568 3.91561952 1.625 5.875 C1.74101562 6.96554688 1.85703125 8.05609375 1.9765625 9.1796875 C1.98429688 10.11039063 1.99203125 11.04109375 2 12 C1.34 12.66 0.68 13.32 0 14 C-0.99 13.67 -1.98 13.34 -3 13 C-2.34 12.67 -1.68 12.34 -1 12 C-0.53476937 10.10466658 -0.53476937 10.10466658 -0.375 7.9375 C-0.25125 6.638125 -0.1275 5.33875 0 4 C-0.66 3.67 -1.32 3.34 -2 3 C-1.34 3 -0.68 3 0 3 C0 2.01 0 1.02 0 0 Z " fill="#000000" transform="translate(209,28)"/>
<path d="M0 0 C1.65 0.33 3.3 0.66 5 1 C3.8125 2.5 3.8125 2.5 2 4 C-0.6875 4.1875 -0.6875 4.1875 -3 4 C-2.01 2.68 -1.02 1.36 0 0 Z " fill="#000000" transform="translate(97,29)"/>
<path d="M0 0 C0.66 0.99 1.32 1.98 2 3 C1.01 4.485 1.01 4.485 0 6 C-0.45139459 8.0492094 -0.45139459 8.0492094 -0.625 10.1875 C-0.74875 11.445625 -0.8725 12.70375 -1 14 C-1.66 14 -2.32 14 -3 14 C-2.58846263 9.02906176 -2.20399168 4.55491614 0 0 Z " fill="#000000" transform="translate(103,31)"/>
<path d="M0 0 C0.66 0.66 1.32 1.32 2 2 C2.804375 1.835 3.60875 1.67 4.4375 1.5 C7 1 7 1 10 3 C9.06027344 3.19916016 9.06027344 3.19916016 8.1015625 3.40234375 C6.87566406 3.66724609 6.87566406 3.66724609 5.625 3.9375 C4.81289063 4.11152344 4.00078125 4.28554688 3.1640625 4.46484375 C0.970537 4.92330693 0.970537 4.92330693 -1 6 C-1.66 5.34 -2.32 4.68 -3 4 C-2.01 4 -1.02 4 0 4 C0 2.68 0 1.36 0 0 Z " fill="#000000" transform="translate(32,30)"/>
<path d="M0 0 C0.33 0 0.66 0 1 0 C1.33 2.97 1.66 5.94 2 9 C2.66 9 3.32 9 4 9 C4.33 9.99 4.66 10.98 5 12 C3.0625 11.6875 3.0625 11.6875 1 11 C-0.28317892 7.15046324 -0.06643637 4.05261865 0 0 Z " fill="#000000" transform="translate(415,34)"/>
<path d="M0 0 C0.33 0 0.66 0 1 0 C1 4.95 1 9.9 1 15 C0.34 14.67 -0.32 14.34 -1 14 C-0.67 9.38 -0.34 4.76 0 0 Z " fill="#000000" transform="translate(295,35)"/>
<path d="M0 0 C0.33 0.99 0.66 1.98 1 3 C1.99 3.33 2.98 3.66 4 4 C3.34 4 2.68 4 2 4 C2 5.98 2 7.96 2 10 C1.34 9.67 0.68 9.34 0 9 C0 7.68 0 6.36 0 5 C-0.66 4.67 -1.32 4.34 -2 4 C-1.34 4 -0.68 4 0 4 C0 2.68 0 1.36 0 0 Z " fill="#000000" transform="translate(313,37)"/>
<path d="M0 0 C0.33 0 0.66 0 1 0 C1.06058594 0.71027344 1.12117187 1.42054687 1.18359375 2.15234375 C1.26738281 3.07144531 1.35117188 3.99054687 1.4375 4.9375 C1.51871094 5.85402344 1.59992187 6.77054688 1.68359375 7.71484375 C1.76044976 9.96159732 1.76044976 9.96159732 3 11 C3.04092937 13.33297433 3.04241723 15.66705225 3 18 C4.65 18 6.3 18 8 18 C7.360625 18.103125 6.72125 18.20625 6.0625 18.3125 C5.0415625 18.6528125 5.0415625 18.6528125 4 19 C3.67 19.99 3.34 20.98 3 22 C2.92652344 21.04287109 2.92652344 21.04287109 2.8515625 20.06640625 C2.77679688 19.24011719 2.70203125 18.41382812 2.625 17.5625 C2.55539062 16.73878906 2.48578125 15.91507813 2.4140625 15.06640625 C2.20910156 14.04353516 2.20910156 14.04353516 2 13 C1.34 12.67 0.68 12.34 0 12 C0 8.04 0 4.08 0 0 Z " fill="#000000" transform="translate(6,39)"/>
<path d="M0 0 C0 2.93593133 -0.22499427 5.76556416 -0.5 8.6875 C-0.5928125 9.68136719 -0.685625 10.67523438 -0.78125 11.69921875 C-0.8534375 12.45847656 -0.925625 13.21773437 -1 14 C-1.33 14 -1.66 14 -2 14 C-2.76173392 9.6835078 -3.16063604 6.25566547 -2 2 C-2.66 1.67 -3.32 1.34 -4 1 C-2.68 0.67 -1.36 0.34 0 0 Z " fill="#000000" transform="translate(332,48)"/>
<path d="M0 0 C1.3609623 2.7219246 0.70366248 4.1831957 0.0625 7.125 C-0.13214844 8.03507812 -0.32679688 8.94515625 -0.52734375 9.8828125 C-0.68332031 10.58148438 -0.83929688 11.28015625 -1 12 C-1.33 11.34 -1.66 10.68 -2 10 C-2.66 9.67 -3.32 9.34 -4 9 C-3.34 9 -2.68 9 -2 9 C-1.7834375 7.0509375 -1.7834375 7.0509375 -1.5625 5.0625 C-1.125 1.125 -1.125 1.125 0 0 Z " fill="#000000" transform="translate(166,53)"/>
<path d="M0 0 C0.33 1.65 0.66 3.3 1 5 C-1.31 5 -3.62 5 -6 5 C-5.67 4.34 -5.34 3.68 -5 3 C-5.66 2.34 -6.32 1.68 -7 1 C-4.53721199 -0.231394 -2.7204945 -0.07159196 0 0 Z M-3 1 C-3 1.99 -3 2.98 -3 4 C-2.34 4 -1.68 4 -1 4 C-1 3.01 -1 2.02 -1 1 C-1.66 1 -2.32 1 -3 1 Z " fill="#000000" transform="translate(426,53)"/>
<path d="M0 0 C2.97 0.99 5.94 1.98 9 3 C7.1875 5 7.1875 5 5 7 C4.01 7 3.02 7 2 7 C2 6.01 2 5.02 2 4 C1.01 4.33 0.02 4.66 -1 5 C-0.67 3.35 -0.34 1.7 0 0 Z M3 3 C3 3.66 3 4.32 3 5 C3.66 5 4.32 5 5 5 C5 4.34 5 3.68 5 3 C4.34 3 3.68 3 3 3 Z M6 3 C7 5 7 5 7 5 Z " fill="#000000" transform="translate(128,52)"/>
<path d="M0 0 C0 0.99 0 1.98 0 3 C-2.95664519 4.4783226 -5.74229737 4.06032783 -9 4 C-9 3.01 -9 2.02 -9 1 C-2.25 -1.125 -2.25 -1.125 0 0 Z M-8 1 C-8 1.66 -8 2.32 -8 3 C-7.34 3 -6.68 3 -6 3 C-6 2.34 -6 1.68 -6 1 C-6.66 1 -7.32 1 -8 1 Z M-5 1 C-4.67 1.66 -4.34 2.32 -4 3 C-3.67 2.34 -3.34 1.68 -3 1 C-3.66 1 -4.32 1 -5 1 Z " fill="#000000" transform="translate(118,57)"/>
<path d="M0 0 C0.33 0 0.66 0 1 0 C1.18175781 0.90492187 1.18175781 0.90492187 1.3671875 1.828125 C1.53476563 2.62734375 1.70234375 3.4265625 1.875 4.25 C2.03742188 5.03890625 2.19984375 5.8278125 2.3671875 6.640625 C2.91075382 9.02675211 2.91075382 9.02675211 4.1328125 11.109375 C5 13 5 13 4 16 C0.67424388 10.4174808 -0.46450943 6.50313209 0 0 Z " fill="#000000" transform="translate(100,59)"/>
<path d="M0 0 C0.515625 0.37125 1.03125 0.7425 1.5625 1.125 C-1.1041419 2.45832095 -2.60430303 1.79602033 -5.4375 1.125 C-5.7675 2.115 -6.0975 3.105 -6.4375 4.125 C-7.4275 3.135 -8.4175 2.145 -9.4375 1.125 C-3.0375 -1.09038462 -3.0375 -1.09038462 0 0 Z " fill="#000000" transform="translate(396.4375,66.875)"/>
<path d="M0 0 C0.66 0.66 1.32 1.32 2 2 C-3.22270869 4.66464729 -6.0819503 5.32854177 -12 4 C-12 3.67 -12 3.34 -12 3 C-10.82630859 2.80083984 -10.82630859 2.80083984 -9.62890625 2.59765625 C-8.61699219 2.42105469 -7.60507812 2.24445313 -6.5625 2.0625 C-5.55316406 1.88847656 -4.54382813 1.71445313 -3.50390625 1.53515625 C-1.0712562 1.25248903 -1.0712562 1.25248903 0 0 Z " fill="#000000" transform="translate(303,72)"/>
<path d="M0 0 C0.66 0.33 1.32 0.66 2 1 C3.70363822 1.22622081 5.41328701 1.40888473 7.125 1.5625 C8.03507812 1.64628906 8.94515625 1.73007813 9.8828125 1.81640625 C10.58148438 1.87699219 11.28015625 1.93757813 12 2 C12 2.33 12 2.66 12 3 C5.565 3.495 5.565 3.495 -1 4 C-0.67 2.68 -0.34 1.36 0 0 Z " fill="#000000" transform="translate(426,72)"/>
<path d="M0 0 C0.99 0.66 1.98 1.32 3 2 C2.34 3.32 1.68 4.64 1 6 C-0.65 5.67 -2.3 5.34 -4 5 C-3.01 4.34 -2.02 3.68 -1 3 C-0.67 2.01 -0.34 1.02 0 0 Z " fill="#000000" transform="translate(78,74)"/>
<path d="M0 0 C-0.33 0.99 -0.66 1.98 -1 3 C-1.99 2.67 -2.98 2.34 -4 2 C-6.00875442 2.27571139 -8.01178687 2.60235737 -10 3 C-10 2.34 -10 1.68 -10 1 C-3.375 -1.125 -3.375 -1.125 0 0 Z " fill="#000000" transform="translate(129,75)"/>
<path d="M0 0 C2.625 0.375 2.625 0.375 5 1 C4.67 2.32 4.34 3.64 4 5 C5.32 5.99 6.64 6.98 8 8 C5.03 7.505 5.03 7.505 2 7 C2.33 8.65 2.66 10.3 3 12 C1 11 1 11 0.1484375 8.93359375 C-0.10679687 8.10988281 -0.36203125 7.28617187 -0.625 6.4375 C-0.88539063 5.61121094 -1.14578125 4.78492187 -1.4140625 3.93359375 C-1.60742188 3.29550781 -1.80078125 2.65742187 -2 2 C-1.34 1.34 -0.68 0.68 0 0 Z M0 1 C0.33 2.65 0.66 4.3 1 6 C1.66 5.34 2.32 4.68 3 4 C3 3.01 3 2.02 3 1 C2.01 1 1.02 1 0 1 Z " fill="#000000" transform="translate(309,75)"/>
<path d="M0 0 C0.33 0 0.66 0 1 0 C1.103125 1.11375 1.20625 2.2275 1.3125 3.375 C1.539375 4.57125 1.76625 5.7675 2 7 C2.99 7.66 3.98 8.32 5 9 C4.01 9.33 3.02 9.66 2 10 C-0.1875 8.5625 -0.1875 8.5625 -2 7 C-1.34 7 -0.68 7 0 7 C0 4.69 0 2.38 0 0 Z " fill="#000000" transform="translate(8,76)"/>
<path d="M0 0 C5.28 0 10.56 0 16 0 C16 0.33 16 0.66 16 1 C10.72 1 5.44 1 0 1 C0 0.67 0 0.34 0 0 Z " fill="#000000" transform="translate(249,82)"/>
<path d="M0 0 C0.33 0 0.66 0 1 0 C1 5.61 1 11.22 1 17 C0.67 17 0.34 17 0 17 C0 11.39 0 5.78 0 0 Z " fill="#000000" transform="translate(411,82)"/>
<path d="M0 0 C0.66 0 1.32 0 2 0 C2 3.3 2 6.6 2 10 C-2 8 -2 8 -3 7 C-3.33 8.65 -3.66 10.3 -4 12 C-7.08089673 9.22719294 -8.68775452 6.93673644 -10 3 C-9.34 3 -8.68 3 -8 3 C-7.34 4.32 -6.68 5.64 -6 7 C-5.01 6.01 -4.02 5.02 -3 4 C-2.01 4.99 -1.02 5.98 0 7 C0 4.69 0 2.38 0 0 Z " fill="#000000" transform="translate(296,81)"/>
<path d="M0 0 C0.33 0 0.66 0 1 0 C1 1.98 1 3.96 1 6 C2.98 6 4.96 6 7 6 C7 4.35 7 2.7 7 1 C7.33 1 7.66 1 8 1 C8 4.96 8 8.92 8 13 C7.67 13 7.34 13 7 13 C7 11.02 7 9.04 7 7 C5.35 7.33 3.7 7.66 2 8 C1.67 9.65 1.34 11.3 1 13 C0.67 13 0.34 13 0 13 C0 8.71 0 4.42 0 0 Z " fill="#000000" transform="translate(235,86)"/>
<path d="M0 0 C1.85776765 3.13498292 2.20140476 5.37471432 2 9 C3.65 9 5.3 9 7 9 C4 11 4 11 1 11 C-0.28317892 7.15046324 -0.06643637 4.05261865 0 0 Z " fill="#000000" transform="translate(264,86)"/>
<path d="M0 0 C0.33 0.66 0.66 1.32 1 2 C-0.65 2 -2.3 2 -4 2 C-4 3.32 -4 4.64 -4 6 C-2.68 6.33 -1.36 6.66 0 7 C-1.32 7 -2.64 7 -4 7 C-4 8.32 -4 9.64 -4 11 C-2.35 10.67 -0.7 10.34 1 10 C1 10.66 1 11.32 1 12 C-1.375 12.625 -1.375 12.625 -4 13 C-6 11 -6 11 -6.1953125 8.8359375 C-6.17210937 8.02382812 -6.14890625 7.21171875 -6.125 6.375 C-6.10695312 5.55773437 -6.08890625 4.74046875 -6.0703125 3.8984375 C-6.04710937 3.27195312 -6.02390625 2.64546875 -6 2 C-4.02 1.34 -2.04 0.68 0 0 Z " fill="#000000" transform="translate(252,86)"/>
<path d="M0 0 C0.33 0 0.66 0 1 0 C1.33 2.64 1.66 5.28 2 8 C3.65 8.33 5.3 8.66 7 9 C3.25 11 3.25 11 1 11 C-0.20272819 8.59454362 -0.10071472 7.05003047 -0.0625 4.375 C-0.05347656 3.55773437 -0.04445312 2.74046875 -0.03515625 1.8984375 C-0.02355469 1.27195312 -0.01195312 0.64546875 0 0 Z " fill="#000000" transform="translate(256,87)"/>
<path d="M0 0 C1.125 1.75 1.125 1.75 2 4 C1.125 6.25 1.125 6.25 0 8 C-1.65 8 -3.3 8 -5 8 C-4.67 7.34 -4.34 6.68 -4 6 C-3.01 6 -2.02 6 -1 6 C-0.67 4.02 -0.34 2.04 0 0 Z " fill="#000000" transform="translate(278,87)"/>
<path d="M0 0 C0.66 0.66 1.32 1.32 2 2 C-3.445 3.485 -3.445 3.485 -9 5 C-4.22222222 0.22222222 -4.22222222 0.22222222 0 0 Z " fill="#000000" transform="translate(62,89)"/>
<path d="M0 0 C0.33 0 0.66 0 1 0 C1.84098656 4.01804691 2.05404945 7.01803543 1 11 C1.99 11.33 2.98 11.66 4 12 C3.01 12.33 2.02 12.66 1 13 C0.67 12.01 0.34 11.02 0 10 C-0.66 9.67 -1.32 9.34 -2 9 C-1.34 9 -0.68 9 0 9 C0 7.35 0 5.7 0 4 C-0.99 3.67 -1.98 3.34 -3 3 C-2.01 3 -1.02 3 0 3 C0 2.01 0 1.02 0 0 Z " fill="#000000" transform="translate(304,95)"/>
<path d="M0 0 C0.33 0.66 0.66 1.32 1 2 C-1 5 -1 5 -4.125 5.6875 C-5.07375 5.790625 -6.0225 5.89375 -7 6 C-7 5.01 -7 4.02 -7 3 C-5.02 3 -3.04 3 -1 3 C-0.67 2.01 -0.34 1.02 0 0 Z " fill="#000000" transform="translate(76,94)"/>
<path d="M0 0 C0.33 0.99 0.66 1.98 1 3 C1.66 3.33 2.32 3.66 3 4 C2.01 4.66 1.02 5.32 0 6 C0.33 6.99 0.66 7.98 1 9 C-1.31 9.33 -3.62 9.66 -6 10 C-4 6.66666667 -2 3.33333333 0 0 Z M-3 7 C-3.33 7.66 -3.66 8.32 -4 9 C-3.01 9 -2.02 9 -1 9 C-1 8.34 -1 7.68 -1 7 C-1.66 7 -2.32 7 -3 7 Z " fill="#000000" transform="translate(327,97)"/>
<path d="M0 0 C2.64 0 5.28 0 8 0 C6.77065985 3.68802044 5.06140622 4.72356973 2 7 C1.34 6.67 0.68 6.34 0 6 C1.32 4.68 2.64 3.36 4 2 C3.34 1.67 2.68 1.34 2 1 C1.67 1.66 1.34 2.32 1 3 C0.67 2.01 0.34 1.02 0 0 Z " fill="#000000" transform="translate(77,100)"/>
<path d="M0 0 C0.33 0 0.66 0 1 0 C1 2.31 1 4.62 1 7 C0.67 6.34 0.34 5.68 0 5 C-0.62648438 5.08378906 -1.25296875 5.16757813 -1.8984375 5.25390625 C-2.71570313 5.35574219 -3.53296875 5.45757812 -4.375 5.5625 C-5.18710937 5.66691406 -5.99921875 5.77132812 -6.8359375 5.87890625 C-9 6 -9 6 -11 5 C-11 4.34 -11 3.68 -11 3 C-7.37 3.33 -3.74 3.66 0 4 C0 2.68 0 1.36 0 0 Z " fill="#000000" transform="translate(296,97)"/>
<path d="M0 0 C1.32 0.33 2.64 0.66 4 1 C3.01 1 2.02 1 1 1 C1.99 3.31 2.98 5.62 4 8 C2.68 8.33 1.36 8.66 0 9 C0 6.03 0 3.06 0 0 Z " fill="#000000" transform="translate(8,102)"/>
<path d="M0 0 C0.99 0 1.98 0 3 0 C3.99 3.3 4.98 6.6 6 10 C3.36335259 7.36335259 1.744776 5.24029829 0 2 C0 1.34 0 0.68 0 0 Z " fill="#000000" transform="translate(315,102)"/>
<path d="M0 0 C0 0.33 0 0.66 0 1 C-2.31 1 -4.62 1 -7 1 C-7.33 1.99 -7.66 2.98 -8 4 C-8 3.01 -8 2.02 -8 1 C-10.31 1 -12.62 1 -15 1 C-15 0.67 -15 0.34 -15 0 C-9.62374766 -0.84888195 -5.34629602 -1.0024305 0 0 Z " fill="#000000" transform="translate(276,103)"/>
<path d="M0 0 C0.33 0 0.66 0 1 0 C1 2.64 1 5.28 1 8 C2.65 8.33 4.3 8.66 6 9 C5.67 9.66 5.34 10.32 5 11 C2.36 10.01 -0.28 9.02 -3 8 C-2.01 7.67 -1.02 7.34 0 7 C0 4.69 0 2.38 0 0 Z " fill="#000000" transform="translate(19,106)"/>
<path d="M0 0 C1.32 0.66 2.64 1.32 4 2 C2.1875 4 2.1875 4 0 6 C-0.99 6 -1.98 6 -3 6 C-2 4 -2 4 0 3 C0 2.01 0 1.02 0 0 Z " fill="#000000" transform="translate(345,106)"/>
<path d="M0 0 C1.32 1.32 2.64 2.64 4 4 C2.74458443 6.51083114 1.49936512 6.87125446 -1 8 C-0.7525 7.13375 -0.7525 7.13375 -0.5 6.25 C0.14462031 3.73335631 0.14462031 3.73335631 0 0 Z " fill="#000000" transform="translate(47,107)"/>
<path d="M0 0 C2.31 0.33 4.62 0.66 7 1 C7 2.65 7 4.3 7 6 C6.01 6 5.02 6 4 6 C4 6.66 4 7.32 4 8 C6.31 8.33 8.62 8.66 11 9 C11 9.66 11 10.32 11 11 C11.99 11.33 12.98 11.66 14 12 C13.01 12.33 12.02 12.66 11 13 C10.01 12.34 9.02 11.68 8 11 C7.01 11.66 6.02 12.32 5 13 C4.67 12.01 4.34 11.02 4 10 C3.34 10 2.68 10 2 10 C2 11.65 2 13.3 2 15 C2.99 14.67 3.98 14.34 5 14 C5 14.66 5 15.32 5 16 C6.32 15.67 7.64 15.34 9 15 C9.33 15.66 9.66 16.32 10 17 C6.04 16.67 2.08 16.34 -2 16 C-1.01 15.67 -0.02 15.34 1 15 C0.67 14.2575 0.34 13.515 0 12.75 C-1 10 -1 10 -1 6 C-2.32 5.67 -3.64 5.34 -5 5 C-3.68 5 -2.36 5 -1 5 C-0.67 3.35 -0.34 1.7 0 0 Z M1 1 C0.67 2.65 0.34 4.3 0 6 C1.65 5.67 3.3 5.34 5 5 C4.67 3.68 4.34 2.36 4 1 C3.01 1 2.02 1 1 1 Z M1 7 C1 7.66 1 8.32 1 9 C1.99 8.67 2.98 8.34 4 8 C3.01 7.67 2.02 7.34 1 7 Z " fill="#000000" transform="translate(408,107)"/>
<path d="M0 0 C0.33 0 0.66 0 1 0 C1 1.98 1 3.96 1 6 C1.99 5.67 2.98 5.34 4 5 C4 5.66 4 6.32 4 7 C0.71303767 7.79953138 -0.71023192 8.09658936 -4 7 C-3.67 6.01 -3.34 5.02 -3 4 C-2.34 4.33 -1.68 4.66 -1 5 C-0.67 3.35 -0.34 1.7 0 0 Z " fill="#000000" transform="translate(288,110)"/>
<path d="M0 0 C6.27 0 12.54 0 19 0 C19 0.66 19 1.32 19 2 C12.73 1.67 6.46 1.34 0 1 C0 0.67 0 0.34 0 0 Z " fill="#000000" transform="translate(382,119)"/>
<path d="M0 0 C0.99 0.33 1.98 0.66 3 1 C2.34 1.66 1.68 2.32 1 3 C0.76220472 6.0913386 1.01034981 8.03104944 2 11 C1.34 11 0.68 11 0 11 C-1.49297212 8.01405576 -1.11755228 5.29146376 -1 2 C-0.67 1.34 -0.34 0.68 0 0 Z " fill="#000000" transform="translate(19,123)"/>
<path d="M0 0 C0.66 0.66 1.32 1.32 2 2 C1.625 5.125 1.625 5.125 1 8 C0.67 8 0.34 8 0 8 C0 6.02 0 4.04 0 2 C-0.78375 2.20625 -1.5675 2.4125 -2.375 2.625 C-3.24125 2.74875 -4.1075 2.8725 -5 3 C-5.66 2.34 -6.32 1.68 -7 1 C-3.625 0.375 -3.625 0.375 0 0 Z " fill="#000000" transform="translate(252,126)"/>
<path d="M0 0 C0.33 0 0.66 0 1 0 C1.69508823 6.51244208 2.31909709 12.5510809 1 19 C0.67 19 0.34 19 0 19 C0 16.69 0 14.38 0 12 C-1.32 12 -2.64 12 -4 12 C-4.33 13.32 -4.66 14.64 -5 16 C-5.33 14.68 -5.66 13.36 -6 12 C-8.64 11.34 -11.28 10.68 -14 10 C-14 9.67 -14 9.34 -14 9 C-11.03 9.33 -8.06 9.66 -5 10 C-4.67 9.01 -4.34 8.02 -4 7 C-4 8.32 -4 9.64 -4 11 C-2.68 11 -1.36 11 0 11 C0 7.37 0 3.74 0 0 Z " fill="#000000" transform="translate(14,122)"/>
<path d="M0 0 C0.33 1.32 0.66 2.64 1 4 C2.32 4 3.64 4 5 4 C5.33 2.68 5.66 1.36 6 0 C6 2.97 6 5.94 6 9 C5.67 7.68 5.34 6.36 5 5 C3.68 5 2.36 5 1 5 C0.67 6.32 0.34 7.64 0 9 C0 6.03 0 3.06 0 0 Z " fill="#000000" transform="translate(367,133)"/>
<path d="M0 0 C2.31 0.33 4.62 0.66 7 1 C6.01 1.495 6.01 1.495 5 2 C5.33 2.99 5.66 3.98 6 5 C4.35 5 2.7 5 1 5 C0.67 3.35 0.34 1.7 0 0 Z M2 2 C2 2.66 2 3.32 2 4 C2.66 4 3.32 4 4 4 C4 3.34 4 2.68 4 2 C3.34 2 2.68 2 2 2 Z " fill="#000000" transform="translate(253,134)"/>
<path d="M0 0 C1.32 0.33 2.64 0.66 4 1 C3.01 1 2.02 1 1 1 C1 1.66 1 2.32 1 3 C1.99 3.33 2.98 3.66 4 4 C3.01 4 2.02 4 1 4 C1 4.99 1 5.98 1 7 C1.99 7.33 2.98 7.66 4 8 C2.68 8 1.36 8 0 8 C0 5.36 0 2.72 0 0 Z " fill="#000000" transform="translate(375,134)"/>
<path d="M0 0 C0.66 0.33 1.32 0.66 2 1 C2 3.64 2 6.28 2 9 C3.32 9.33 4.64 9.66 6 10 C4.35 10 2.7 10 1 10 C1 7.36 1 4.72 1 2 C0.34 1.67 -0.32 1.34 -1 1 C-0.67 0.67 -0.34 0.34 0 0 Z " fill="#000000" transform="translate(260,136)"/>
<path d="M0 0 C2.3431213 0.25561323 4.67843403 0.59270772 7 1 C7.33 1.66 7.66 2.32 8 3 C3.545 3.495 3.545 3.495 -1 4 C-0.67 2.68 -0.34 1.36 0 0 Z " fill="#000000" transform="translate(261,149)"/>
<path d="M0 0 C2.4375 0.6875 2.4375 0.6875 5 2 C5.8125 4.625 5.8125 4.625 6 7 C4.35 7 2.7 7 1 7 C1.99 6.34 2.98 5.68 4 5 C3.67 4.34 3.34 3.68 3 3 C2.01 3 1.02 3 0 3 C0 2.01 0 1.02 0 0 Z " fill="#000000" transform="translate(349,150)"/>
<path d="M0 0 C0.33 0 0.66 0 1 0 C1 2.64 1 5.28 1 8 C0.67 6.68 0.34 5.36 0 4 C-0.99 4 -1.98 4 -3 4 C-3.33 5.32 -3.66 6.64 -4 8 C-4 6.35 -4 4.7 -4 3 C-2.68 3 -1.36 3 0 3 C0 2.01 0 1.02 0 0 Z " fill="#000000" transform="translate(159,151)"/>
<path d="M0 0 C0.33 0 0.66 0 1 0 C2.20577428 4.94367454 1.6290678 8.20862412 0 13 C-0.66 12.67 -1.32 12.34 -2 12 C-1.34 8.04 -0.68 4.08 0 0 Z " fill="#000000" transform="translate(465,156)"/>
<path d="M0 0 C0.66 0.66 1.32 1.32 2 2 C4.89223503 2.46396693 4.89223503 2.46396693 8.125 2.625 C9.76855469 2.73714844 9.76855469 2.73714844 11.4453125 2.8515625 C12.28835937 2.90054688 13.13140625 2.94953125 14 3 C14 3.33 14 3.66 14 4 C11.70858714 4.05384521 9.41681812 4.09272087 7.125 4.125 C5.21074219 4.15980469 5.21074219 4.15980469 3.2578125 4.1953125 C0 4 0 4 -2 2 C-1.34 2 -0.68 2 0 2 C0 1.34 0 0.68 0 0 Z " fill="#000000" transform="translate(118,157)"/>
<path d="M0 0 C1.32 0 2.64 0 4 0 C4.33 5.28 4.66 10.56 5 16 C3.68 15.34 2.36 14.68 1 14 C1.66 14 2.32 14 3 14 C3 9.71 3 5.42 3 1 C2.01 0.67 1.02 0.34 0 0 Z " fill="#000000" transform="translate(351,159)"/>
<path d="M0 0 C1.65 1.32 3.3 2.64 5 4 C4.67 5.32 4.34 6.64 4 8 C3.67 6.68 3.34 5.36 3 4 C0.36 4 -2.28 4 -5 4 C-5 3.67 -5 3.34 -5 3 C-3.35 3 -1.7 3 0 3 C0 2.01 0 1.02 0 0 Z " fill="#000000" transform="translate(263,157)"/>
<path d="M0 0 C-1.98 0.99 -1.98 0.99 -4 2 C-3.01 2.99 -2.02 3.98 -1 5 C-2.65 4.67 -4.3 4.34 -6 4 C-6 3.34 -6 2.68 -6 2 C-6.66 1.67 -7.32 1.34 -8 1 C-5.29120665 -0.35439668 -2.99066732 -0.06501451 0 0 Z " fill="#000000" transform="translate(116,162)"/>
<path d="M0 0 C2.69082872 0.17635452 5.32851446 0.61835921 8 1 C7.67 1.99 7.34 2.98 7 4 C4.36 4 1.72 4 -1 4 C-1 1 -1 1 0 0 Z M1 1 C0.67 1.66 0.34 2.32 0 3 C1.65 2.67 3.3 2.34 5 2 C3.68 1.67 2.36 1.34 1 1 Z " fill="#000000" transform="translate(471,168)"/>
<path d="M0 0 C0.99 0 1.98 0 3 0 C3.33 0.99 3.66 1.98 4 3 C1.23776722 5.76223278 -1.20706617 5.57856291 -5 6 C-5.66 4.68 -6.32 3.36 -7 2 C-4.53721199 0.768606 -2.7204945 0.92840804 0 1 C0 0.67 0 0.34 0 0 Z " fill="#000000" transform="translate(497,167)"/>
<path d="M0 0 C0.33 0 0.66 0 1 0 C1 2.31 1 4.62 1 7 C2.32 7.33 3.64 7.66 5 8 C4.01 8 3.02 8 2 8 C1.67 8.66 1.34 9.32 1 10 C0.34 10 -0.32 10 -1 10 C-1 9.34 -1 8.68 -1 8 C-5.62 8.33 -10.24 8.66 -15 9 C-14.67 8.34 -14.34 7.68 -14 7 C-9.38 7 -4.76 7 0 7 C0 4.69 0 2.38 0 0 Z " fill="#000000" transform="translate(341,166)"/>
<path d="M0 0 C0.33 0.99 0.66 1.98 1 3 C2.32303717 3.3721042 3.65737935 3.70630173 5 4 C6.4783226 6.95664519 6.06032783 9.74229737 6 13 C5.67 13 5.34 13 5 13 C4.34 10.36 3.68 7.72 3 5 C1.68 4.67 0.36 4.34 -1 4 C-2.6744239 3.3530635 -4.34302621 2.69040574 -6 2 C-3 1 -3 1 0 2 C0 1.34 0 0.68 0 0 Z " fill="#000000" transform="translate(242,173)"/>
<path d="M0 0 C1.32 0 2.64 0 4 0 C3.67 9.24 3.34 18.48 3 28 C2.67 28 2.34 28 2 28 C2 19.42 2 10.84 2 2 C1.34 2 0.68 2 0 2 C0 1.34 0 0.68 0 0 Z " fill="#000000" transform="translate(462,177)"/>
<path d="M0 0 C1.21236328 0.01353516 1.21236328 0.01353516 2.44921875 0.02734375 C3.37154297 0.04474609 3.37154297 0.04474609 4.3125 0.0625 C0.27957255 2.2969598 -3.13717434 2.60746743 -7.6875 3.0625 C-7.6875 2.4025 -7.6875 1.7425 -7.6875 1.0625 C-4.80538698 0.10179566 -2.98899956 -0.04331883 0 0 Z " fill="#000000" transform="translate(170.6875,180.9375)"/>
<path d="M0 0 C0.66 0.33 1.32 0.66 2 1 C2 1.99 2 2.98 2 4 C3.65 3.67 5.3 3.34 7 3 C6.67 3.66 6.34 4.32 6 5 C4.68 5 3.36 5 2 5 C2.3403125 6.1446875 2.3403125 6.1446875 2.6875 7.3125 C2.790625 8.199375 2.89375 9.08625 3 10 C1.5625 11.8125 1.5625 11.8125 0 13 C-0.33 12.01 -0.66 11.02 -1 10 C-2.1446875 10.2784375 -2.1446875 10.2784375 -3.3125 10.5625 C-6 11 -6 11 -9 10 C-8.34 9.01 -7.68 8.02 -7 7 C-3.92078868 6.74339906 -1.78863007 6.60568496 1 8 C0.67 5.36 0.34 2.72 0 0 Z M-5 8 C-4 10 -4 10 -4 10 Z " fill="#000000" transform="translate(68,183)"/>
<path d="M0 0 C2.31 0.66 4.62 1.32 7 2 C6.360625 2.103125 5.72125 2.20625 5.0625 2.3125 C4.381875 2.539375 3.70125 2.76625 3 3 C2.67 3.99 2.34 4.98 2 6 C1.34 5.67 0.68 5.34 0 5 C0 3.35 0 1.7 0 0 Z " fill="#000000" transform="translate(388,185)"/>
<path d="M0 0 C1.32 0.33 2.64 0.66 4 1 C3.01 1.33 2.02 1.66 1 2 C4.3 2 7.6 2 11 2 C11.33 2.66 11.66 3.32 12 4 C7.38 4 2.76 4 -2 4 C-1.34 2.68 -0.68 1.36 0 0 Z " fill="#000000" transform="translate(480,185)"/>
<path d="M0 0 C0.33 0.66 0.66 1.32 1 2 C3.31 2 5.62 2 8 2 C7.01 2.33 6.02 2.66 5 3 C5 3.66 5 4.32 5 5 C3.35 4.67 1.7 4.34 0 4 C0 2.68 0 1.36 0 0 Z " fill="#000000" transform="translate(368,186)"/>
<path d="M0 0 C2.5 1.375 2.5 1.375 5 4 C5.44908891 7.37080851 5.29036649 10.61884349 5 14 C4.67 14 4.34 14 4 14 C3.97421875 13.38511719 3.9484375 12.77023438 3.921875 12.13671875 C3.7185352 7.00745409 3.7185352 7.00745409 0.9375 2.9375 C-0.0215625 2.4734375 -0.0215625 2.4734375 -1 2 C-1 3.98 -1 5.96 -1 8 C-1.33 8 -1.66 8 -2 8 C-2 5.69 -2 3.38 -2 1 C-1.34 0.67 -0.68 0.34 0 0 Z " fill="#000000" transform="translate(11,193)"/>
<path d="M0 0 C-0.5625 1.9375 -0.5625 1.9375 -2 4 C-5.625 4.75 -5.625 4.75 -9 5 C-8.625 3.0625 -8.625 3.0625 -8 1 C-5.29120665 -0.35439668 -2.99066732 -0.06501451 0 0 Z M-5 1 C-5 1.66 -5 2.32 -5 3 C-4.34 2.67 -3.68 2.34 -3 2 C-3.66 1.67 -4.32 1.34 -5 1 Z M-8 2 C-8 2.66 -8 3.32 -8 4 C-7.34 4 -6.68 4 -6 4 C-6 3.34 -6 2.68 -6 2 C-6.66 2 -7.32 2 -8 2 Z " fill="#000000" transform="translate(52,194)"/>
<path d="M0 0 C0.66 0 1.32 0 2 0 C1.71890887 1.64767247 1.42481474 3.29313145 1.125 4.9375 C0.96257812 5.85402344 0.80015625 6.77054688 0.6328125 7.71484375 C0.42398438 8.46894531 0.21515625 9.22304687 0 10 C-0.99 10.495 -0.99 10.495 -2 11 C-2.33 11.66 -2.66 12.32 -3 13 C-2.69240822 11.02006459 -2.3787932 9.04106401 -2.0625 7.0625 C-1.88847656 5.96035156 -1.71445313 4.85820312 -1.53515625 3.72265625 C-1 1 -1 1 0 0 Z " fill="#000000" transform="translate(69,196)"/>
<path d="M0 0 C1.4540625 0.0309375 1.4540625 0.0309375 2.9375 0.0625 C2.6075 0.7225 2.2775 1.3825 1.9375 2.0625 C0.6175 2.0625 -0.7025 2.0625 -2.0625 2.0625 C-2.3925 5.0325 -2.7225 8.0025 -3.0625 11.0625 C-3.3925 11.0625 -3.7225 11.0625 -4.0625 11.0625 C-4.08938151 9.41675434 -4.10884123 7.77088587 -4.125 6.125 C-4.13660156 5.20847656 -4.14820313 4.29195312 -4.16015625 3.34765625 C-4.00919455 -0.18484756 -3.60673121 0.07360676 0 0 Z " fill="#000000" transform="translate(199.0625,199.9375)"/>
<path d="M0 0 C0.99 0.495 0.99 0.495 2 1 C3.70363822 1.22622081 5.41328701 1.40888473 7.125 1.5625 C8.03507812 1.64628906 8.94515625 1.73007813 9.8828125 1.81640625 C10.58148438 1.87699219 11.28015625 1.93757812 12 2 C7.8204355 4.78637633 5.85331323 3.79562512 1 3 C0.67 2.01 0.34 1.02 0 0 Z " fill="#000000" transform="translate(465,205)"/>
<path d="M0 0 C0.99 -0.33 1.98 -0.66 3 -1 C3.33 2.3 3.66 5.6 4 9 C3.34 9 2.68 9 2 9 C1.34 7.68 0.68 6.36 0 5 C0.33 6.65 0.66 8.3 1 10 C-1.7839183 8.60804085 -1.97898997 6.84424221 -3 4 C-3.66 4.66 -4.32 5.32 -5 6 C-5.66 6 -6.32 6 -7 6 C-8.125 2.25 -8.125 2.25 -7 0 C-3.75370153 -1.08209949 -3.12563502 -0.78140875 0 0 Z " fill="#000000" transform="translate(76,209)"/>
<path d="M0 0 C0.33 0 0.66 0 1 0 C1.66 2.64 2.32 5.28 3 8 C2.34 8 1.68 8 1 8 C1.66 9.98 2.32 11.96 3 14 C2.01 14 1.02 14 0 14 C-0.33 12.02 -0.66 10.04 -1 8 C-3.97 7.67 -6.94 7.34 -10 7 C-10 6.67 -10 6.34 -10 6 C-6.7 6 -3.4 6 0 6 C0 4.02 0 2.04 0 0 Z " fill="#000000" transform="translate(233,204)"/>
<path d="M0 0 C2.375 1.375 2.375 1.375 3.5 3.6875 C3.375 6.375 3.375 6.375 0.9375 9.1875 C0.091875 9.909375 -0.75375 10.63125 -1.625 11.375 C-3.9379482 9.0620518 -4.12080975 7.89595125 -4.75 4.75 C-4.91757812 3.93273437 -5.08515625 3.11546875 -5.2578125 2.2734375 C-5.37898438 1.64695313 -5.50015625 1.02046875 -5.625 0.375 C-2.625 -0.625 -2.625 -0.625 0 0 Z M-4.625 1.375 C-3.635 4.015 -2.645 6.655 -1.625 9.375 C-0.305 8.055 1.015 6.735 2.375 5.375 C1.715 4.055 1.055 2.735 0.375 1.375 C-1.275 1.375 -2.925 1.375 -4.625 1.375 Z " fill="#000000" transform="translate(292.625,210.625)"/>
<path d="M0 0 C0.66 0.33 1.32 0.66 2 1 C1.67 2.32 1.34 3.64 1 5 C2.175625 5.4640625 2.175625 5.4640625 3.375 5.9375 C6 7 6 7 8 8 C7.67 8.66 7.34 9.32 7 10 C5.02 9.01 3.04 8.02 1 7 C1.33 8.32 1.66 9.64 2 11 C1.34 10.67 0.68 10.34 0 10 C-0.44921875 7.96875 -0.44921875 7.96875 -0.6875 5.5 C-0.77386719 4.6853125 -0.86023438 3.870625 -0.94921875 3.03125 C-0.96597656 2.3609375 -0.98273438 1.690625 -1 1 C-0.67 0.67 -0.34 0.34 0 0 Z " fill="#000000" transform="translate(272,215)"/>
<path d="M0 0 C0.33 1.32 0.66 2.64 1 4 C1.99 4 2.98 4 4 4 C4 4.66 4 5.32 4 6 C1.69 6.66 -0.62 7.32 -3 8 C-2.67 7.01 -2.34 6.02 -2 5 C-1.34 5 -0.68 5 0 5 C0 3.35 0 1.7 0 0 Z " fill="#000000" transform="translate(232,218)"/>
<path d="M0 0 C2.31 0.33 4.62 0.66 7 1 C7 1.99 7 2.98 7 4 C6 5 6 5 4.15234375 5.09765625 C2.1015625 5.06510417 0.05078125 5.03255208 -2 5 C-1.01 4.67 -0.02 4.34 1 4 C0.67 2.68 0.34 1.36 0 0 Z M2 1 C2 1.66 2 2.32 2 3 C2.66 3 3.32 3 4 3 C4 2.34 4 1.68 4 1 C3.34 1 2.68 1 2 1 Z " fill="#000000" transform="translate(181,220)"/>
<path d="M0 0 C2.31 0.33 4.62 0.66 7 1 C7 1.99 7 2.98 7 4 C4.125 4.625 4.125 4.625 1 5 C0.34 4.34 -0.32 3.68 -1 3 C-0.34 3 0.32 3 1 3 C0.67 2.01 0.34 1.02 0 0 Z M2 1 C2 1.66 2 2.32 2 3 C2.99 3 3.98 3 5 3 C5 2.34 5 1.68 5 1 C4.01 1 3.02 1 2 1 Z " fill="#000000" transform="translate(163,221)"/>
<path d="M0 0 C2.0625 0.4375 2.0625 0.4375 4 1 C3.67 2.98 3.34 4.96 3 7 C2.01 7 1.02 7 0 7 C0 6.01 0 5.02 0 4 C-0.33 3.01 -0.66 2.02 -1 1 C-0.67 0.67 -0.34 0.34 0 0 Z M1 1 C1.99 2.485 1.99 2.485 3 4 C3 3.01 3 2.02 3 1 C2.34 1 1.68 1 1 1 Z " fill="#000000" transform="translate(108,224)"/>
<path d="M0 0 C1.32 1.65 2.64 3.3 4 5 C3.01 5 2.02 5 1 5 C1 7.97 1 10.94 1 14 C0.67 14 0.34 14 0 14 C-0.19456705 12.04235617 -0.38044247 10.08384679 -0.5625 8.125 C-0.66691406 7.03445312 -0.77132813 5.94390625 -0.87890625 4.8203125 C-1 2 -1 2 0 0 Z " fill="#000000" transform="translate(9,226)"/>
<path d="M0 0 C0.33 0 0.66 0 1 0 C1 5.61 1 11.22 1 17 C0.67 17 0.34 17 0 17 C0 11.39 0 5.78 0 0 Z " fill="#000000" transform="translate(464,227)"/>
<path d="M0 0 C0.66 0.66 1.32 1.32 2 2 C1.34 2.66 0.68 3.32 0 4 C0.33 4.66 0.66 5.32 1 6 C-0.8125 6.625 -0.8125 6.625 -3 7 C-3.99 6.34 -4.98 5.68 -6 5 C-5.01 4.67 -4.02 4.34 -3 4 C-3 3.34 -3 2.68 -3 2 C-4.32 1.67 -5.64 1.34 -7 1 C-3.625 0.375 -3.625 0.375 0 0 Z " fill="#000000" transform="translate(478,227)"/>
<path d="M0 0 C0.33 0 0.66 0 1 0 C1 4.29 1 8.58 1 13 C0.34 12.67 -0.32 12.34 -1 12 C-0.67 8.04 -0.34 4.08 0 0 Z " fill="#000000" transform="translate(390,230)"/>
<path d="M0 0 C0.66 0.99 1.32 1.98 2 3 C2.66 3.33 3.32 3.66 4 4 C3.01 4.33 2.02 4.66 1 5 C1 7.97 1 10.94 1 14 C0.67 14 0.34 14 0 14 C-0.33 12.02 -0.66 10.04 -1 8 C-2.65 7.67 -4.3 7.34 -6 7 C-6.33 7.66 -6.66 8.32 -7 9 C-7 7.02 -7 5.04 -7 3 C-6.67 3.99 -6.34 4.98 -6 6 C-4.02 6 -2.04 6 0 6 C0 4.02 0 2.04 0 0 Z " fill="#000000" transform="translate(142,234)"/>
<path d="M0 0 C0.33 0.99 0.66 1.98 1 3 C-1.97 5.475 -1.97 5.475 -5 8 C-5.66 7.67 -6.32 7.34 -7 7 C-6.34 6.01 -5.68 5.02 -5 4 C-5 3.34 -5 2.68 -5 2 C-3.35 1.34 -1.7 0.68 0 0 Z " fill="#000000" transform="translate(358,232)"/>
<path d="M0 0 C2.18975773 3.28463659 2.99806563 6.20696275 4 10 C3.34 10.66 2.68 11.32 2 12 C0.86235649 7.73383684 0 4.43513689 0 0 Z " fill="#000000" transform="translate(60,239)"/>
<path d="M0 0 C1.98 0.66 3.96 1.32 6 2 C5.01 2.99 4.02 3.98 3 5 C0.525 4.01 0.525 4.01 -2 3 C-1.34 2.01 -0.68 1.02 0 0 Z " fill="#000000" transform="translate(310,239)"/>
<path d="M0 0 C1.98 0 3.96 0 6 0 C6.13277344 0.81984375 6.26554688 1.6396875 6.40234375 2.484375 C6.57894531 3.56203125 6.75554688 4.6396875 6.9375 5.75 C7.11152344 6.81734375 7.28554687 7.8846875 7.46484375 8.984375 C7.88704171 11.36347593 8.37202884 13.66915211 9 16 C8.01 15.34 7.02 14.68 6 14 C6 12.68 6 11.36 6 10 C4.02 10.33 2.04 10.66 0 11 C0.66 10.34 1.32 9.68 2 9 C2.99 9 3.98 9 5 9 C5 8.01 5 7.02 5 6 C3.02 6 1.04 6 -1 6 C-1 5.67 -1 5.34 -1 5 C0.98 5 2.96 5 5 5 C5 3.68 5 2.36 5 1 C3.35 1 1.7 1 0 1 C0 0.67 0 0.34 0 0 Z " fill="#000000" transform="translate(3,240)"/>
<path d="M0 0 C0.33 0 0.66 0 1 0 C1.33 2.31 1.66 4.62 2 7 C4.475 7.99 4.475 7.99 7 9 C6.67 10.32 6.34 11.64 6 13 C6 12.01 6 11.02 6 10 C5.01 10 4.02 10 3 10 C3 11.65 3 13.3 3 15 C1.02 15.99 1.02 15.99 -1 17 C-0.01 15.515 -0.01 15.515 1 14 C0.71979545 11.9918674 0.37593066 9.9924325 0 8 C-0.09154008 5.32606599 -0.04614928 2.67665818 0 0 Z " fill="#000000" transform="translate(94,242)"/>
<path d="M0 0 C0.33 1.32 0.66 2.64 1 4 C-0.98 4 -2.96 4 -5 4 C-4.67 4.66 -4.34 5.32 -4 6 C-4.99 5.67 -5.98 5.34 -7 5 C-6.67 3.68 -6.34 2.36 -6 1 C-3.03 1.495 -3.03 1.495 0 2 C0 1.34 0 0.68 0 0 Z " fill="#000000" transform="translate(179,241)"/>
<path d="M0 0 C1.32 0 2.64 0 4 0 C4 0.66 4 1.32 4 2 C4.66 2.33 5.32 2.66 6 3 C4.35 3.33 2.7 3.66 1 4 C1.33 4.99 1.66 5.98 2 7 C1.34 7 0.68 7 0 7 C0 4.69 0 2.38 0 0 Z " fill="#000000" transform="translate(398,245)"/>
<path d="M0 0 C0.99 0.33 1.98 0.66 3 1 C3.99 1 4.98 1 6 1 C5.01 2.485 5.01 2.485 4 4 C4 4.99 4 5.98 4 7 C2 5.1875 2 5.1875 0 3 C0 2.01 0 1.02 0 0 Z " fill="#000000" transform="translate(27,248)"/>
<path d="M0 0 C1.32 0.99 2.64 1.98 4 3 C4.66 2.67 5.32 2.34 6 2 C6.33 2.99 6.66 3.98 7 5 C5.02 5.33 3.04 5.66 1 6 C1 5.01 1 4.02 1 3 C0.67 2.01 0.34 1.02 0 0 Z " fill="#000000" transform="translate(395,250)"/>
<path d="M0 0 C0.66 0.33 1.32 0.66 2 1 C0.515 2.485 0.515 2.485 -1 4 C-0.01 4.99 0.98 5.98 2 7 C1.67 7.66 1.34 8.32 1 9 C0.401875 8.38125 -0.19625 7.7625 -0.8125 7.125 C-3.00811144 4.86323046 -3.00811144 4.86323046 -6 3 C-4.03533587 1.93224776 -2.03144641 0.93446535 0 0 Z " fill="#000000" transform="translate(42,252)"/>
<path d="M0 0 C0.33 1.32 0.66 2.64 1 4 C1.99 4 2.98 4 4 4 C4.33 3.34 4.66 2.68 5 2 C5.99 2.66 6.98 3.32 8 4 C7.34 4 6.68 4 6 4 C6 5.98 6 7.96 6 10 C5.67 10 5.34 10 5 10 C5 8.35 5 6.7 5 5 C3.35 5 1.7 5 0 5 C0 6.98 0 8.96 0 11 C1.32 11.33 2.64 11.66 4 12 C2.35 12.33 0.7 12.66 -1 13 C-1 13.66 -1 14.32 -1 15 C-1.66 15 -2.32 15 -3 15 C-2.88529863 13.24929483 -2.75780972 11.49942464 -2.625 9.75 C-2.55539063 8.77546875 -2.48578125 7.8009375 -2.4140625 6.796875 C-2.01534751 4.10366811 -1.36492937 2.33036721 0 0 Z " fill="#000000" transform="translate(28,253)"/>
<path d="M0 0 C0.99 0 1.98 0 3 0 C3.33 0.99 3.66 1.98 4 3 C3.67 3.66 3.34 4.32 3 5 C2.34 4.67 1.68 4.34 1 4 C-0.47765166 3.92990267 -1.95834814 3.91564061 -3.4375 3.9375 C-4.21996094 3.94652344 -5.00242187 3.95554687 -5.80859375 3.96484375 C-6.89333984 3.98224609 -6.89333984 3.98224609 -8 4 C-8.99 4 -9.98 4 -11 4 C-10.67 3.01 -10.34 2.02 -10 1 C-6.7 1 -3.4 1 0 1 C0 0.67 0 0.34 0 0 Z " fill="#000000" transform="translate(468,253)"/>
<path d="M0 0 C0.66 0 1.32 0 2 0 C2.33 2.97 2.66 5.94 3 9 C3.66 9 4.32 9 5 9 C5.33 12.3 5.66 15.6 6 19 C5.34 18.67 4.68 18.34 4 18 C3.375 14.9375 3.375 14.9375 3 12 C2.01 12.495 2.01 12.495 1 13 C0.93941406 12.38511719 0.87882812 11.77023437 0.81640625 11.13671875 C0.73261719 10.32847656 0.64882813 9.52023437 0.5625 8.6875 C0.48128906 7.88699219 0.40007812 7.08648437 0.31640625 6.26171875 C0.04734307 3.83912821 0.04734307 3.83912821 -1 1 C-0.67 0.67 -0.34 0.34 0 0 Z " fill="#000000" transform="translate(505,257)"/>
<path d="M0 0 C1.93166016 0.01740234 1.93166016 0.01740234 3.90234375 0.03515625 C5.19269531 0.04417969 6.48304688 0.05320312 7.8125 0.0625 C8.81152344 0.07410156 9.81054688 0.08570313 10.83984375 0.09765625 C10.83984375 0.42765625 10.83984375 0.75765625 10.83984375 1.09765625 C4.40484375 1.59265625 4.40484375 1.59265625 -2.16015625 2.09765625 C-2.49015625 4.07765625 -2.82015625 6.05765625 -3.16015625 8.09765625 C-3.49015625 8.09765625 -3.82015625 8.09765625 -4.16015625 8.09765625 C-4.20257348 5.7647085 -4.20108562 3.43063058 -4.16015625 1.09765625 C-3.16015625 0.09765625 -3.16015625 0.09765625 0 0 Z " fill="#000000" transform="translate(371.16015625,257.90234375)"/>
<path d="M0 0 C0.66 0.33 1.32 0.66 2 1 C-0.125 3.0625 -0.125 3.0625 -3 5 C-6.3125 4.75 -6.3125 4.75 -9 4 C-9 3.67 -9 3.34 -9 3 C-8.43410156 2.86722656 -7.86820312 2.73445313 -7.28515625 2.59765625 C-6.18494141 2.33275391 -6.18494141 2.33275391 -5.0625 2.0625 C-4.33160156 1.88847656 -3.60070312 1.71445312 -2.84765625 1.53515625 C-1.00030102 1.16112431 -1.00030102 1.16112431 0 0 Z " fill="#000000" transform="translate(416,264)"/>
<path d="M0 0 C3.91211733 1.15585285 6.8745041 2.35534962 10 5 C9.67 5.66 9.34 6.32 9 7 C7.4972763 6.02501855 5.99788037 5.04490611 4.5 4.0625 C3.6646875 3.51722656 2.829375 2.97195313 1.96875 2.41015625 C1.3190625 1.94480469 0.669375 1.47945313 0 1 C0 0.67 0 0.34 0 0 Z " fill="#000000" transform="translate(74,266)"/>
<path d="M0 0 C0.33 0 0.66 0 1 0 C2.14819277 5.8685408 1.77313045 11.0885256 1 17 C-0.32 16.34 -1.64 15.68 -3 15 C-2.34 14.67 -1.68 14.34 -1 14 C-0.67 12.02 -0.34 10.04 0 8 C-6.6 8 -13.2 8 -20 8 C-20 7.67 -20 7.34 -20 7 C-13.4 7 -6.8 7 0 7 C0 4.69 0 2.38 0 0 Z " fill="#000000" transform="translate(304,262)"/>
<path d="M0 0 C0.33 0.99 0.66 1.98 1 3 C4.96 3 8.92 3 13 3 C13 3.33 13 3.66 13 4 C7.72 4 2.44 4 -3 4 C-2.01 3.67 -1.02 3.34 0 3 C0 2.01 0 1.02 0 0 Z " fill="#000000" transform="translate(376,269)"/>
<path d="M0 0 C2 3 2 3 1.625 5.1875 C1.41875 5.785625 1.2125 6.38375 1 7 C0.67 6.01 0.34 5.02 0 4 C-5.28 3.67 -10.56 3.34 -16 3 C-16 2.67 -16 2.34 -16 2 C-10.72 2 -5.44 2 0 2 C0 1.34 0 0.68 0 0 Z " fill="#000000" transform="translate(132,268)"/>
<path d="M0 0 C2.86724686 0.57344937 3.8614515 0.8614515 6 3 C5.625 5.125 5.625 5.125 5 7 C4.01 5.35 3.02 3.7 2 2 C1.67 3.65 1.34 5.3 1 7 C0.67 7 0.34 7 0 7 C0 4.69 0 2.38 0 0 Z " fill="#000000" transform="translate(72,272)"/>
</svg>
